<svg width="88" height="88" viewBox="0 0 88 88" fill="none" xmlns="http://www.w3.org/2000/svg">
<g id="fontisto:room" clip-path="url(#clip0_309_918)">
<path id="Vector" d="M57.5081 71.5147L55.2238 75.1887V75.2877H59.0004V71.5147C59.0004 70.521 59.0994 69.4283 59.0994 68.3357H59.0004C58.5018 69.4283 58.1058 70.422 57.5118 71.5147H57.5081ZM84.3261 42.3097H81.3451V40.3223H83.5304L82.1408 38.9327L83.5304 37.543L85.6168 39.6293L84.3261 40.92V42.3097ZM78.3641 42.3097H75.3868V40.3223H78.3678L78.3641 42.3097ZM72.4021 42.3097H69.4248V40.3223H72.4058L72.4021 42.3097ZM66.4438 42.3097H63.4774V40.3223H66.4584L66.4438 42.3097ZM60.4818 42.3097H57.5081V40.3223H60.4891L60.4818 42.3097ZM54.5234 42.3097H51.5498V40.3223H54.5308L54.5234 42.3097ZM48.5614 42.3097H45.5841V40.3223H48.5651L48.5614 42.3097ZM42.5994 42.3097H39.6294V40.3223H42.6104L42.5994 42.3097ZM36.6411 42.3097H33.6711V40.3223H36.6521L36.6411 42.3097ZM30.6791 42.3097H27.7091V40.3223H30.6901L30.6791 42.3097ZM24.7208 42.3097H21.7508V40.3223H24.7318L24.7208 42.3097ZM18.7588 42.3097H15.7924V40.3223H18.7698L18.7588 42.3097ZM12.7968 42.3097H9.83044V40.3223H12.8114L12.7968 42.3097ZM6.83844 42.3097H3.8721V40.821L2.68044 42.0127L1.29077 40.6267L3.3771 38.5403L4.76677 39.93L4.37077 40.326H6.8641L6.83844 42.3097ZM6.95211 37.84L5.56244 36.4503L7.64877 34.364L9.03844 35.7537L6.95211 37.84ZM79.9554 36.8463L77.8691 34.76L79.2588 33.3703L81.3451 35.4567L79.9554 36.8463ZM11.1248 33.671L9.7351 32.2667L11.8214 30.1803L13.2111 31.57L11.1248 33.671ZM75.7974 32.6773L73.7111 30.591L75.1008 29.2013L77.1871 31.2877L75.7974 32.6773ZM15.3928 29.4983L14.0031 28.1087L16.0894 26.0223L17.4791 27.412L15.3928 29.4983ZM71.5111 28.5047L69.4248 26.4183L70.8108 25.0323L72.8971 27.1187L71.5111 28.5047ZM19.6644 25.3257L18.2748 23.936L20.3574 21.8497L21.7471 23.2393L19.6644 25.3257ZM67.2394 24.3467L65.1531 22.2603L66.5428 20.8707L68.6291 22.957L67.2394 24.3467ZM23.9361 21.1567L22.5464 19.767L24.6328 17.6807L26.0224 19.0703L23.9361 21.1567ZM62.9714 20.1593L60.8851 18.073L62.2748 16.6833L64.3574 18.7733L62.9714 20.1593ZM28.2078 16.984L26.8108 15.5943L28.8971 13.508L30.2868 14.8977L28.2078 16.984ZM58.7144 15.9903L56.6134 13.904L58.0031 12.5143L60.0894 14.6007L58.7144 15.9903ZM32.4794 12.8113L31.0898 11.4217L33.1761 9.33533L34.5658 10.725L32.4794 12.8113ZM54.4281 11.8177L52.3308 9.73133L53.7204 8.34167L55.8068 10.428L54.4281 11.8177ZM36.7474 8.64233L35.3578 7.25267L37.4441 5.16633L38.8338 6.556L36.7474 8.64233ZM50.2408 7.64867L48.1691 5.57333L49.5588 4.18367L51.6451 6.27L50.2408 7.64867ZM40.9201 4.46967L39.5304 3.08L41.7158 0.993667L43.1054 2.38333L40.9201 4.46967ZM45.9874 3.476L43.9011 1.38967L45.1918 0L47.2781 2.08633L45.9874 3.476ZM35.9554 50.0573C34.2651 50.0573 33.2751 51.6487 33.2751 53.7313C33.2751 55.9167 34.2688 57.4053 35.9554 57.4053C37.6421 57.4053 38.5368 55.814 38.5368 53.7313C38.5404 51.744 37.6458 50.0573 35.9554 50.0573ZM25.2268 50.0573C24.8531 50.0189 24.4754 50.055 24.1158 50.1637L24.1341 50.16V53.141H25.1278C26.3194 53.141 27.1151 52.5543 27.1151 51.5497C27.0161 50.556 26.3194 50.0573 25.2268 50.0573ZM47.5751 50.0573C45.8848 50.0573 44.8948 51.6487 44.8948 53.7313C44.8948 55.9167 45.8884 57.4053 47.5751 57.4053C49.2618 57.4053 50.1564 55.814 50.1564 53.7313C50.2554 51.744 49.2654 50.0573 47.5751 50.0573Z" fill="black"/>
<path id="Vector_2" d="M82.9327 38.2871H4.917C2.2 38.2871 -0.00366211 40.4908 -0.00366211 43.2078V43.2591V43.2554V82.6318C-0.00366211 85.3488 2.2 87.5524 4.917 87.5524H82.9803C85.6973 87.5524 87.901 85.3488 87.901 82.6318V82.5804V82.5841V43.2554C87.8952 41.9405 87.3703 40.6811 86.4405 39.7513C85.5107 38.8215 84.2513 38.2966 82.9363 38.2908L82.9327 38.2871ZM5.26534 82.1881H2.981V44.5461H5.26534V82.1881ZM21.6517 48.0184C22.638 47.8938 23.7783 47.8204 24.9333 47.8204C26.1994 47.6747 27.4754 47.9911 28.5267 48.7114L28.5083 48.7004C28.8506 48.9713 29.1204 49.3226 29.2938 49.7232C29.4672 50.1237 29.5387 50.5609 29.502 50.9958V50.9848C29.4987 51.567 29.3184 52.1345 28.985 52.6119C28.6517 53.0893 28.1811 53.454 27.6357 53.6578L27.6173 53.6651C28.413 53.9584 28.809 54.6588 29.106 55.7514C29.3773 56.9834 29.6817 58.0138 30.0447 59.0148L29.986 58.8314H27.4047C27.0796 58.0315 26.8209 57.2061 26.631 56.3638L26.609 56.2501C26.3157 54.8604 25.8133 54.5598 24.8233 54.4644H24.035V58.7361H21.5527V48.0184H21.6517ZM35.0607 81.7884H23.034V79.4051L25.2193 77.4178C28.8933 74.1398 30.6827 72.1524 30.7927 70.1651C30.7927 68.7754 29.997 67.6828 28.0133 67.6828C26.666 67.7329 25.3736 68.2295 24.3393 69.0944L24.3503 69.0871L23.2577 66.2051C24.8452 65.0411 26.7634 64.4153 28.732 64.4194H28.8347C29.5794 64.3224 30.3325 64.3854 31.051 64.6042C31.7694 64.8229 32.4329 65.1924 32.9972 65.688C33.5614 66.1835 34.0135 66.7938 34.3232 67.4779C34.6329 68.1621 34.793 68.9044 34.793 69.6554V69.7874V69.7801C34.5965 71.241 34.1011 72.6458 33.3378 73.9069C32.5745 75.1679 31.5596 76.2582 30.3563 77.1098L30.3233 77.1318L28.732 78.4224V78.5214H35.09L35.0607 81.7884ZM30.69 53.3828C30.6302 52.6492 30.7231 51.9111 30.9628 51.2152C31.2025 50.5193 31.5838 49.8806 32.0826 49.3394C32.5815 48.7981 33.187 48.3662 33.8611 48.0707C34.5353 47.7752 35.2633 47.6225 35.9993 47.6224H36.0543H36.0507H36.1827C36.8922 47.6226 37.5938 47.7719 38.2419 48.0608C38.89 48.3498 39.4701 48.7717 39.9445 49.2994C40.4189 49.827 40.7771 50.4486 40.9956 51.1236C41.2142 51.7987 41.2884 52.5122 41.2133 53.2178L41.217 53.1958C41.2925 53.9234 41.2143 54.6587 40.9876 55.3542C40.7609 56.0497 40.3907 56.6898 39.9009 57.2331C39.4111 57.7765 38.8127 58.2109 38.1444 58.5083C37.4761 58.8058 36.7528 58.9596 36.0213 58.9598L35.8453 58.9561H35.8527H35.728C35.0181 58.9565 34.3161 58.8075 33.6676 58.5188C33.0191 58.2302 32.4385 57.8082 31.9637 57.2805C31.4889 56.7528 31.1305 56.1311 30.9116 55.4558C30.6928 54.7805 30.6186 54.0667 30.6937 53.3608V53.3828H30.69ZM42.5077 82.0891L42.306 82.0928C40.5277 82.0928 38.852 81.6528 37.3853 80.8718L37.444 80.9011L38.2397 77.9201C39.4517 78.5996 40.8107 78.9746 42.1997 79.0128H42.2107C44.297 79.0128 45.2907 78.0191 45.2907 76.7284C45.2907 75.0381 43.6003 74.3451 41.9137 74.3451H40.3223V71.4631H41.9137C43.2043 71.4631 44.8947 70.9681 44.8947 69.4758C44.8947 68.4821 44.099 67.6901 42.4087 67.6901C41.1402 67.7382 39.9012 68.0862 38.7933 68.7058L38.8337 68.6838L38.038 65.8018C39.647 64.8971 41.4731 64.4507 43.318 64.5111H43.3033C46.9773 64.5111 48.9647 66.3958 48.9647 68.7828C48.9581 69.6858 48.6564 70.5618 48.1056 71.2774C47.5549 71.993 46.7852 72.5089 45.914 72.7464L45.8847 72.7538V72.8528C47.9747 73.1131 49.5733 74.8768 49.5733 77.0144V77.0254C49.4633 79.9074 46.7793 82.0928 42.5113 82.0928L42.5077 82.0891ZM47.4723 58.9451H47.399C46.6872 58.9452 45.9833 58.7966 45.3322 58.5089C44.6812 58.2212 44.0974 57.8006 43.6183 57.2743C43.1392 56.7479 42.7753 56.1272 42.55 55.452C42.3246 54.7769 42.2428 54.0621 42.3097 53.3534V53.3754C42.2499 52.6418 42.3428 51.9038 42.5825 51.2079C42.8222 50.512 43.2034 49.8732 43.7023 49.332C44.2011 48.7908 44.8067 48.3588 45.4808 48.0633C46.1549 47.7678 46.883 47.6152 47.619 47.6151H47.674H47.8023C48.5119 47.6152 49.2135 47.7646 49.8616 48.0535C50.5097 48.3424 51.0898 48.7644 51.5642 49.2921C52.0386 49.8197 52.3967 50.4413 52.6153 51.1163C52.8339 51.7914 52.9081 52.5049 52.833 53.2104L52.8367 53.1884C52.9121 53.916 52.834 54.6514 52.6073 55.3468C52.3805 56.0423 52.0103 56.6824 51.5206 57.2258C51.0308 57.7691 50.4324 58.2036 49.7641 58.501C49.0958 58.7984 48.3725 58.9522 47.641 58.9524L47.4687 58.9488H47.476L47.4723 58.9451ZM64.856 77.7184H62.7733V81.7884H58.9967V77.7148H51.4507V75.1334L57.904 64.8044H62.7733V74.7374H64.8597L64.856 77.7184ZM63.8623 58.8498L63.6533 54.6771C63.6533 53.3864 63.5543 51.7951 63.5543 50.2074C63.261 51.5971 62.7587 53.1884 62.3627 54.4791L61.072 58.7508H59.1873L57.9957 54.4791C57.5997 53.1884 57.299 51.5971 57.002 50.2074C56.903 51.6961 56.903 53.3864 56.804 54.7761L56.617 58.9488H54.3327L55.0293 48.0221H58.3073L59.4 51.6961C59.6933 52.9868 60.0967 54.2774 60.28 55.5718C60.5733 54.2811 60.9767 52.8914 61.2737 51.6008L62.4653 47.9268H65.7433L66.33 58.8534L63.8623 58.8498ZM84.9163 81.7958H82.632V44.2491H84.9163V81.7958Z" fill="black"/>
</g>
<defs>
<clipPath id="clip0_309_918">
<rect width="88" height="88" fill="white"/>
</clipPath>
</defs>
</svg>
