<svg width="88" height="88" viewBox="0 0 88 88" fill="none" xmlns="http://www.w3.org/2000/svg">
<path id="Vector" d="M17.7193 82.1519C17.7193 85.3822 15.4753 88.0039 12.7065 88.0039H12.6876C11.359 88.0039 10.0847 87.3881 9.14521 86.292C8.20571 85.196 7.6779 83.7093 7.6779 82.1592V5.84857C7.6779 2.61824 9.9219 0.00390625 12.6876 0.00390625H12.7065C15.4753 0.00390625 17.7193 2.62191 17.7193 5.85224V82.1519ZM6.32962 9.84891H2.82533C2.09653 9.888 1.40862 10.253 0.904427 10.8683C0.400234 11.4835 0.118486 12.3016 0.117678 13.1527C0.116869 14.0039 0.397061 14.8228 0.900083 15.4393C1.40311 16.0558 2.09032 16.4226 2.81904 16.4636H6.32647L6.32962 9.84891ZM80.4696 21.8169H30.1839C27.9727 21.8208 25.853 22.8473 24.2895 24.6714C22.7259 26.4956 21.8461 28.9685 21.8428 31.5482V65.4576C21.8428 66.7345 22.0583 67.999 22.4772 69.1788C22.8961 70.3586 23.51 71.4305 24.284 72.3335C25.0579 73.2364 25.9768 73.9527 26.988 74.4414C27.9992 74.9301 29.0831 75.1816 30.1776 75.1816H80.4696C82.6808 75.1777 84.8005 74.1512 86.364 72.327C87.9276 70.5029 88.8074 68.03 88.8108 65.4502V31.5409C88.8108 28.9619 87.9326 26.4886 86.3695 24.665C84.8065 22.8414 82.6865 21.8169 80.4759 21.8169H80.4696ZM84.4925 65.4502C84.4883 66.6886 84.0648 67.8749 83.3142 68.7506C82.5636 69.6263 81.5468 70.1204 80.4853 70.1252H30.1933C27.9839 70.1252 26.1925 68.0352 26.1925 65.4576V31.5446C26.1966 30.3068 26.6197 29.1211 27.3696 28.2455C28.1195 27.3699 29.1355 26.8754 30.1965 26.8696H80.4822C81.5437 26.8744 82.5605 27.3685 83.3111 28.2442C84.0617 29.1199 84.4852 30.3062 84.4893 31.5446L84.4925 65.4502ZM38.0316 19.9359C38.8068 19.9359 39.5502 19.5766 40.0984 18.9371C40.6465 18.2976 40.9545 17.4303 40.9545 16.5259V9.60691C40.9545 8.70252 40.6465 7.83517 40.0984 7.19567C39.5502 6.55617 38.8068 6.19691 38.0316 6.19691C37.2564 6.19691 36.513 6.55617 35.9648 7.19567C35.4167 7.83517 35.1088 8.70252 35.1088 9.60691V9.71324V16.5296C35.1088 17.434 35.4167 18.3013 35.9648 18.9408C36.513 19.5803 37.2564 19.9396 38.0316 19.9396V19.9359ZM72.6313 19.9359C73.4065 19.9359 74.15 19.5766 74.6981 18.9371C75.2462 18.2976 75.5542 17.4303 75.5542 16.5259V9.70591C75.5542 8.80152 75.2462 7.93417 74.6981 7.29467C74.15 6.65517 73.4065 6.29591 72.6313 6.29591C71.8561 6.29591 71.1127 6.65517 70.5646 7.29467C70.0164 7.93417 69.7085 8.80152 69.7085 9.70591V16.5259C69.7085 18.4106 71.019 19.9359 72.6313 19.9359ZM42.3876 9.84891H68.269V16.4636H42.3876V9.84891ZM86.6705 13.1159C86.6688 12.251 86.3736 11.4221 85.8494 10.8105C85.3252 10.1989 84.6147 9.85451 83.8733 9.85257H77.3959V16.4672H83.8702C84.6113 16.4643 85.3213 16.1196 85.8453 15.5082C86.3694 14.8969 86.6648 14.0685 86.6673 13.2039L86.6705 13.1159Z" fill="black"/>
</svg>
