<svg width="558" height="396" viewBox="0 0 558 396" fill="none" xmlns="http://www.w3.org/2000/svg">
<path d="M0 156.612V178.816H16.896V173.508L0 156.612Z" fill="#B83B5E"/>
<path d="M61.3125 217.924V278.816H85.2165C88.9925 278.816 92.3205 278.368 95.2005 277.472C98.1445 276.576 100.608 275.2 102.592 273.344C104.576 271.488 106.08 269.12 107.104 266.24C107.332 265.626 107.535 264.988 107.714 264.326L90.538 247.15C90.7803 247.556 90.9905 247.999 91.1685 248.48C91.8085 250.208 92.1285 252.544 92.1285 255.488C92.1285 259.2 91.3925 262.016 89.9205 263.936C88.5125 265.856 85.9205 266.816 82.1445 266.816H78.4965V243.488H82.0485C84.5445 243.488 86.5285 243.904 88.0005 244.736C88.0944 244.785 88.1867 244.836 88.2773 244.889L61.3125 217.924Z" fill="#B83B5E"/>
<path d="M108.667 258.207C108.713 257.42 108.737 256.61 108.737 255.776C108.737 252.064 108.192 248.896 107.104 246.272C106.08 243.648 104.545 241.568 102.496 240.032C100.449 238.432 97.9205 237.44 94.9125 237.056C97.2805 236.608 99.2965 235.744 100.961 234.464C102.688 233.184 104 231.488 104.896 229.376C105.856 227.2 106.337 224.544 106.337 221.408C106.337 217.056 105.664 213.568 104.321 210.944C103.041 208.256 101.248 206.208 98.9445 204.8C96.6405 203.328 93.9845 202.336 90.9765 201.824C88.0325 201.312 84.8965 201.056 81.5685 201.056H61.3125V210.853L78.4965 228.037V212.576H81.4725C83.6485 212.576 85.4405 212.928 86.8485 213.632C88.3205 214.336 89.4085 215.392 90.1125 216.8C90.8805 218.144 91.2645 219.84 91.2645 221.888C91.2645 224.064 91.0085 225.92 90.4965 227.456C90.0485 228.992 89.1525 230.176 87.8085 231.008C86.596 231.701 84.8626 232.081 82.6084 232.149L108.667 258.207Z" fill="#6A2C70"/>
<path fill-rule="evenodd" clip-rule="evenodd" d="M143.564 300.176C142.299 300.059 140.962 300 139.553 300C133.729 300 129.121 301.024 125.729 303.072C122.337 305.056 119.905 307.936 118.433 311.712C116.961 315.488 116.225 320.064 116.225 325.44V354.336C116.225 359.648 116.961 364.224 118.433 368.064C119.905 371.904 122.337 374.848 125.729 376.896C129.121 378.944 133.729 379.968 139.553 379.968C145.441 379.968 150.081 378.944 153.473 376.896C156.929 374.848 159.393 371.904 160.865 368.064C162.337 364.224 163.073 359.648 163.073 354.336V325.44C163.073 323.272 162.954 321.234 162.714 319.326L143.564 300.176ZM143.489 366.432C142.657 367.328 141.345 367.776 139.553 367.776C137.761 367.776 136.449 367.328 135.617 366.432C134.849 365.536 134.337 364.384 134.081 362.976C133.889 361.568 133.793 360.128 133.793 358.656V321.216C133.793 319.68 133.921 318.24 134.177 316.896C134.433 315.488 134.977 314.336 135.809 313.44C136.641 312.544 137.889 312.096 139.553 312.096C141.345 312.096 142.657 312.544 143.489 313.44C144.321 314.336 144.865 315.488 145.121 316.896C145.377 318.24 145.505 319.68 145.505 321.216V358.656C145.505 360.128 145.377 361.568 145.121 362.976C144.865 364.384 144.321 365.536 143.489 366.432Z" fill="#B83B5E"/>
<path d="M153.612 303.152L159.67 309.211C158.213 306.684 156.194 304.664 153.612 303.152Z" fill="#B70404"/>
<path d="M173.531 330.143V378.816H197.435C201.211 378.816 204.539 378.368 207.419 377.472C210.363 376.576 212.827 375.2 214.811 373.344C215.142 373.035 215.459 372.712 215.762 372.374L203.79 360.402C203.423 361.802 202.872 362.98 202.139 363.936C200.731 365.856 198.139 366.816 194.363 366.816H190.715V347.327L173.531 330.143Z" fill="#B83B5E"/>
<path fill-rule="evenodd" clip-rule="evenodd" d="M193.947 343.488L173.531 323.072V301.056H193.787C197.115 301.056 200.251 301.312 203.195 301.824C206.203 302.336 208.859 303.328 211.163 304.8C213.467 306.208 215.259 308.256 216.539 310.944C217.883 313.568 218.555 317.056 218.555 321.408C218.555 324.544 218.075 327.2 217.115 329.376C216.219 331.488 214.907 333.184 213.179 334.464C211.515 335.744 209.499 336.608 207.131 337.056C210.139 337.44 212.667 338.432 214.715 340.032C216.763 341.568 218.299 343.648 219.323 346.272C220.411 348.896 220.955 352.064 220.955 355.776C220.955 359.808 220.411 363.296 219.323 366.24C219.093 366.886 218.839 367.507 218.561 368.102L204.312 353.852C204.212 351.665 203.904 349.875 203.387 348.48C202.747 346.752 201.691 345.504 200.219 344.736C198.747 343.904 196.763 343.488 194.267 343.488H193.947ZM194.075 332.16H190.715V312.576H193.691C195.867 312.576 197.659 312.928 199.067 313.632C200.539 314.336 201.627 315.392 202.331 316.8C203.099 318.144 203.483 319.84 203.483 321.888C203.483 324.064 203.227 325.92 202.715 327.456C202.267 328.992 201.371 330.176 200.027 331.008C198.683 331.776 196.699 332.16 194.075 332.16Z" fill="#6A2C70"/>
<path d="M16.896 166.437L0 149.541V101.056H46.56V178.816H29.664V113.344H16.896V166.437Z" fill="#6A2C70"/>
<path d="M135.937 95.616V67.5484L148.624 80.2353L147.745 95.616H135.937Z" fill="#6A2C70"/>
<path d="M167.943 101.056H169.444L179.736 111.347L168.039 139.744L184.359 178.816H168.999L154.407 141.088H153.543V178.816H139.911V141.088H139.143L124.551 178.816H109.191L125.511 139.744L109.575 101.056H125.607L139.143 137.44H139.911V101.056H153.543V137.44H154.407L167.943 101.056Z" fill="#6A2C70"/>
<path d="M176.515 101.056L181.799 106.339L183.975 101.056H176.515Z" fill="#B70404"/>
<path d="M186.944 178.816L196.518 128.129L208.964 140.575L207.392 152.128H215.648L214.881 146.492L233.078 164.69L235.712 178.816H219.872L217.28 162.4H205.855L203.168 178.816H186.944Z" fill="#6A2C70"/>
<path d="M197.641 122.182L209.811 134.351L211.52 121.792L213.767 138.307L231.458 155.998L221.216 101.056H201.632L197.641 122.182Z" fill="#F08A5D"/>
<path d="M238.475 178.816V170.086L247.169 178.781C244.633 178.961 241.734 178.973 238.475 178.816Z" fill="#B70404"/>
<path d="M242.033 166.573L253.299 177.839C255.859 177.154 257.926 176.103 259.499 174.688C261.483 172.896 262.954 170.432 263.915 167.296C264.939 164.16 265.674 160.288 266.122 155.68C266.57 151.008 267.018 145.472 267.466 139.072L269.003 114.208H277.547V178.816H294.635V101.056H253.451L250.955 135.808C250.507 141.632 250.123 146.432 249.803 150.208C249.547 153.984 249.195 156.992 248.747 159.232C248.299 161.472 247.691 163.136 246.923 164.224C246.155 165.312 245.099 166.016 243.755 166.336C243.241 166.434 242.667 166.513 242.033 166.573Z" fill="#F08A5D"/>
<path d="M283.067 237.44V214.679L296.699 228.311V237.44H297.563L299.804 231.416L313.392 245.004L327.515 278.816H312.155L297.563 241.088H296.699V278.816H283.067V241.088H282.299L267.707 278.816H252.347L268.667 239.744L252.731 201.056H268.763L282.299 237.44H283.067Z" fill="#6A2C70"/>
<path d="M283.067 207.608L296.699 221.24V201.056H283.067V207.608Z" fill="#F08A5D"/>
<path d="M312.365 236.905L301.722 226.262L311.099 201.056H327.131L312.365 236.905Z" fill="#F08A5D"/>
<path d="M334.132 278.816V265.743L347.204 278.816H334.132Z" fill="#B70404"/>
<path d="M334.132 258.672L351.316 275.856V244.832H363.316V278.816H380.596V201.056H363.316V232.544H351.316V201.056H334.132V258.672Z" fill="#F08A5D"/>
<path d="M384.444 325.44C384.444 322.29 384.697 319.414 385.202 316.814L402.012 333.624V358.656C402.012 360.128 402.108 361.568 402.3 362.976C402.556 364.384 403.068 365.536 403.836 366.432C404.668 367.328 405.98 367.776 407.772 367.776C409.564 367.776 410.876 367.328 411.708 366.432C412.54 365.536 413.084 364.384 413.34 362.976C413.596 361.568 413.724 360.128 413.724 358.656V345.336L430.654 362.265C430.288 364.356 429.765 366.288 429.084 368.064C427.612 371.904 425.148 374.848 421.692 376.896C418.3 378.944 413.66 379.968 407.772 379.968C401.948 379.968 397.34 378.944 393.948 376.896C390.556 374.848 388.124 371.904 386.652 368.064C385.18 364.224 384.444 359.648 384.444 354.336V325.44Z" fill="#6A2C70"/>
<path d="M386.801 311.341L402.012 326.553V321.216C402.012 319.68 402.14 318.24 402.396 316.896C402.652 315.488 403.196 314.336 404.028 313.44C404.86 312.544 406.108 312.096 407.772 312.096C409.564 312.096 410.876 312.544 411.708 313.44C412.54 314.336 413.084 315.488 413.34 316.896C413.596 318.24 413.724 319.68 413.724 321.216V338.265L431.273 355.813C431.285 355.327 431.292 354.835 431.292 354.336V325.44C431.292 320.064 430.556 315.488 429.084 311.712C427.612 307.936 425.148 305.056 421.692 303.072C418.3 301.024 413.66 300 407.772 300C401.948 300 397.34 301.024 393.948 303.072C390.668 304.991 388.285 307.747 386.801 311.341Z" fill="#DB005B"/>
<path d="M437.718 395.616V369.33L450.309 381.92L449.526 395.616H437.718Z" fill="#6A2C70"/>
<path fill-rule="evenodd" clip-rule="evenodd" d="M441.408 365.948L454.275 378.816H488.598L489.462 395.616H500.79V366.528H492.054V301.056H455.862L453.75 328.224C453.366 333.472 452.886 338.112 452.31 342.144C451.734 346.112 451.03 349.536 450.198 352.416C449.366 355.296 448.438 357.696 447.414 359.616C446.39 361.536 445.238 363.072 443.958 364.224C443.163 364.936 442.313 365.51 441.408 365.948ZM476.022 366.528H456.15C457.11 365.632 458.07 364.672 459.03 363.648C460.054 362.624 461.014 361.312 461.91 359.712C462.806 358.112 463.638 356.064 464.406 353.568C465.238 351.008 465.942 347.808 466.518 343.968C467.158 340.128 467.638 335.456 467.958 329.952L468.822 313.248H476.022V366.528Z" fill="#DB005B"/>
<path fill-rule="evenodd" clip-rule="evenodd" d="M140.765 65.3061L154.275 78.816H186.817L187.681 95.616H199.009V66.528H190.273V1.056H154.081L151.969 28.224C151.585 33.472 151.105 38.112 150.529 42.144C149.953 46.112 149.249 49.536 148.417 52.416C147.585 55.296 146.657 57.696 145.633 59.616C144.609 61.536 143.457 63.072 142.177 64.224C141.724 64.629 141.254 64.9897 140.765 65.3061ZM174.241 66.528H154.369C155.329 65.632 156.289 64.672 157.249 63.648C158.273 62.624 159.233 61.312 160.129 59.712C161.025 58.112 161.857 56.064 162.625 53.568C163.457 51.008 164.161 47.808 164.737 43.968C165.377 40.128 165.857 35.456 166.177 29.952L167.041 13.248H174.241V66.528Z" fill="#F08A5D"/>
<path fill-rule="evenodd" clip-rule="evenodd" d="M263.069 11.8559V78.816H282.365C285.821 78.816 289.021 78.528 291.965 77.952C294.973 77.376 297.597 76.288 299.837 74.688C302.077 73.088 303.805 70.816 305.021 67.872C306.301 64.928 306.941 61.088 306.941 56.352C306.941 56.1409 306.94 55.9314 306.937 55.7235L285.118 33.9047C284.718 33.8936 284.312 33.888 283.901 33.888H280.253V29.04L263.069 11.8559ZM282.461 67.584H280.253V45.792H282.269C285.725 45.792 288.029 46.784 289.181 48.768C290.333 50.688 290.941 53.088 291.005 55.968C291.069 58.592 290.845 60.768 290.333 62.496C289.821 64.224 288.925 65.504 287.645 66.336C286.365 67.168 284.637 67.584 282.461 67.584Z" fill="#F08A5D"/>
<path d="M293.445 35.1606L305.831 47.5466C305.419 46.1352 304.894 44.8463 304.253 43.68C302.461 40.352 299.837 37.888 296.381 36.288C295.459 35.8531 294.48 35.4773 293.445 35.1606Z" fill="#B70404"/>
<path d="M315.938 64.7242V78.816H330.029L315.938 64.7242Z" fill="#F08A5D"/>
<path fill-rule="evenodd" clip-rule="evenodd" d="M333.122 74.8371L315.938 57.6531V1.056H342.049C346.721 1.056 350.562 1.952 353.57 3.744C356.578 5.472 358.818 8.032 360.29 11.424C361.762 14.752 362.497 18.816 362.497 23.616C362.497 29.632 361.505 34.24 359.522 37.44C357.538 40.576 354.85 42.752 351.458 43.968C348.065 45.184 344.258 45.792 340.034 45.792H333.122V74.8371ZM338.882 33.792H333.122V13.152H338.785C341.09 13.152 342.786 13.6 343.874 14.496C344.962 15.392 345.634 16.608 345.889 18.144C346.21 19.616 346.37 21.344 346.37 23.328C346.37 25.696 346.178 27.648 345.794 29.184C345.474 30.72 344.77 31.872 343.682 32.64C342.594 33.408 340.993 33.792 338.882 33.792Z" fill="#6A2C70"/>
<path fill-rule="evenodd" clip-rule="evenodd" d="M362.812 111.599V178.816H386.716C390.492 178.816 393.82 178.368 396.701 177.472C399.645 176.576 402.109 175.2 404.092 173.344C406.077 171.488 407.581 169.12 408.604 166.24C409.4 164.086 409.905 161.642 410.119 158.906L383.373 132.16H379.997V128.783L362.812 111.599ZM383.645 166.816H379.997V143.488H383.549C386.044 143.488 388.029 143.904 389.501 144.736C390.973 145.504 392.029 146.752 392.669 148.48C393.309 150.208 393.629 152.544 393.629 155.488C393.629 159.2 392.893 162.016 391.421 163.936C390.013 165.856 387.421 166.816 383.645 166.816Z" fill="#F08A5D"/>
<path d="M379.997 121.712L362.812 104.528V101.056H383.069C386.397 101.056 389.533 101.312 392.477 101.824C395.484 102.336 398.141 103.328 400.445 104.8C402.749 106.208 404.54 108.256 405.82 110.944C407.165 113.568 407.837 117.056 407.837 121.408C407.837 124.544 407.357 127.2 406.397 129.376C405.501 131.488 404.189 133.184 402.461 134.464C400.797 135.744 398.781 136.608 396.413 137.056C399.421 137.44 401.949 138.432 403.997 140.032C406.044 141.568 407.581 143.648 408.604 146.272C409.271 147.88 409.733 149.691 409.992 151.707L389.298 131.014L389.309 131.008C390.652 130.176 391.549 128.992 391.997 127.456C392.509 125.92 392.764 124.064 392.764 121.888C392.764 119.84 392.38 118.144 391.613 116.8C390.909 115.392 389.82 114.336 388.349 113.632C386.941 112.928 385.148 112.576 382.973 112.576H379.997V121.712Z" fill="#6A2C70"/>
<path d="M417.813 166.6L415.506 178.816H430.029L417.813 166.6Z" fill="#F08A5D"/>
<path fill-rule="evenodd" clip-rule="evenodd" d="M432.486 174.201L418.937 160.653L430.194 101.056H449.778L464.274 178.816H448.434L445.842 162.4H434.418L432.486 174.201ZM444.21 152.128H435.954L440.082 121.792L444.21 152.128Z" fill="#6A2C70"/>
<path d="M452.269 201.056H449.35V278.816H459.815L480.07 233.504V278.816H493.895V242.681L473.353 222.139L462.887 245.6V211.673L452.269 201.056Z" fill="#F08A5D"/>
<path d="M462.887 204.602L459.34 201.056H462.887V204.602Z" fill="#B70404"/>
<path d="M475.534 217.25L493.895 235.61V201.056H482.759L475.534 217.25Z" fill="#6A2C70"/>
<path d="M280.253 21.9689L263.069 4.78486V1.056H301.661V14.112H280.253V21.9689Z" fill="#6A2C70"/>
<path fill-rule="evenodd" clip-rule="evenodd" d="M214.979 76.896C218.371 78.944 222.979 79.968 228.803 79.968C234.691 79.968 239.331 78.944 242.723 76.896C246.179 74.848 248.643 71.904 250.115 68.064C251.587 64.224 252.323 59.648 252.323 54.336V25.44C252.323 20.064 251.587 15.488 250.115 11.712C248.643 7.936 246.179 5.056 242.723 3.072C239.331 1.024 234.691 0 228.803 0C222.979 0 218.371 1.024 214.979 3.072C211.587 5.056 209.155 7.936 207.683 11.712C206.211 15.488 205.475 20.064 205.475 25.44V54.336C205.475 59.648 206.211 64.224 207.683 68.064C209.155 71.904 211.587 74.848 214.979 76.896ZM232.739 66.432C231.907 67.328 230.595 67.776 228.803 67.776C227.011 67.776 225.699 67.328 224.867 66.432C224.099 65.536 223.587 64.384 223.331 62.976C223.139 61.568 223.043 60.128 223.043 58.656V21.216C223.043 19.68 223.171 18.24 223.427 16.896C223.683 15.488 224.227 14.336 225.059 13.44C225.891 12.544 227.139 12.096 228.803 12.096C230.595 12.096 231.907 12.544 232.739 13.44C233.571 14.336 234.115 15.488 234.371 16.896C234.627 18.24 234.755 19.68 234.755 21.216V58.656C234.755 60.128 234.627 61.568 234.371 62.976C234.115 64.384 233.571 65.536 232.739 66.432Z" fill="#F08A5D"/>
<path fill-rule="evenodd" clip-rule="evenodd" d="M379.229 76.896C382.621 78.944 387.229 79.968 393.053 79.968C398.941 79.968 403.581 78.944 406.973 76.896C410.429 74.848 412.893 71.904 414.365 68.064C415.837 64.224 416.573 59.648 416.573 54.336V25.44C416.573 20.064 415.837 15.488 414.365 11.712C412.893 7.936 410.429 5.056 406.973 3.072C403.581 1.024 398.941 0 393.053 0C387.229 0 382.621 1.024 379.229 3.072C375.837 5.056 373.405 7.936 371.933 11.712C370.461 15.488 369.725 20.064 369.725 25.44V54.336C369.725 59.648 370.461 64.224 371.933 68.064C373.405 71.904 375.837 74.848 379.229 76.896ZM396.989 66.432C396.157 67.328 394.845 67.776 393.053 67.776C391.261 67.776 389.949 67.328 389.117 66.432C388.349 65.536 387.837 64.384 387.581 62.976C387.389 61.568 387.293 60.128 387.293 58.656V21.216C387.293 19.68 387.421 18.24 387.677 16.896C387.933 15.488 388.477 14.336 389.309 13.44C390.141 12.544 391.389 12.096 393.053 12.096C394.845 12.096 396.157 12.544 396.989 13.44C397.821 14.336 398.365 15.488 398.621 16.896C398.877 18.24 399.005 19.68 399.005 21.216V58.656C399.005 60.128 398.877 61.568 398.621 62.976C398.365 64.384 397.821 65.536 396.989 66.432Z" fill="#6A2C70"/>
<path fill-rule="evenodd" clip-rule="evenodd" d="M66.573 176.896C69.965 178.944 74.573 179.968 80.397 179.968C86.285 179.968 90.925 178.944 94.317 176.896C97.773 174.848 100.237 171.904 101.709 168.064C103.181 164.224 103.917 159.648 103.917 154.336V125.44C103.917 120.064 103.181 115.488 101.709 111.712C100.237 107.936 97.773 105.056 94.317 103.072C90.925 101.024 86.285 100 80.397 100C74.573 100 69.965 101.024 66.573 103.072C63.181 105.056 60.749 107.936 59.277 111.712C57.805 115.488 57.069 120.064 57.069 125.44V154.336C57.069 159.648 57.805 164.224 59.277 168.064C60.749 171.904 63.181 174.848 66.573 176.896ZM84.333 166.432C83.501 167.328 82.189 167.776 80.397 167.776C78.605 167.776 77.293 167.328 76.461 166.432C75.693 165.536 75.181 164.384 74.925 162.976C74.733 161.568 74.637 160.128 74.637 158.656V121.216C74.637 119.68 74.765 118.24 75.021 116.896C75.277 115.488 75.821 114.336 76.653 113.44C77.485 112.544 78.733 112.096 80.397 112.096C82.189 112.096 83.501 112.544 84.333 113.44C85.165 114.336 85.709 115.488 85.965 116.896C86.221 118.24 86.349 119.68 86.349 121.216V158.656C86.349 160.128 86.221 161.568 85.965 162.976C85.709 164.384 85.165 165.536 84.333 166.432Z" fill="#6A2C70"/>
<path fill-rule="evenodd" clip-rule="evenodd" d="M315.01 176.896C318.402 178.944 323.01 179.968 328.835 179.968C334.723 179.968 339.363 178.944 342.755 176.896C346.211 174.848 348.674 171.904 350.147 168.064C351.618 164.224 352.354 159.648 352.354 154.336V125.44C352.354 120.064 351.618 115.488 350.147 111.712C348.674 107.936 346.211 105.056 342.755 103.072C339.363 101.024 334.723 100 328.835 100C323.01 100 318.402 101.024 315.01 103.072C311.618 105.056 309.186 107.936 307.715 111.712C306.242 115.488 305.507 120.064 305.507 125.44V154.336C305.507 159.648 306.242 164.224 307.715 168.064C309.186 171.904 311.618 174.848 315.01 176.896ZM332.771 166.432C331.939 167.328 330.626 167.776 328.835 167.776C327.043 167.776 325.73 167.328 324.898 166.432C324.13 165.536 323.618 164.384 323.363 162.976C323.171 161.568 323.074 160.128 323.074 158.656V121.216C323.074 119.68 323.203 118.24 323.458 116.896C323.715 115.488 324.259 114.336 325.091 113.44C325.923 112.544 327.171 112.096 328.835 112.096C330.626 112.096 331.939 112.544 332.771 113.44C333.603 114.336 334.147 115.488 334.402 116.896C334.659 118.24 334.786 119.68 334.786 121.216V158.656C334.786 160.128 334.659 161.568 334.402 162.976C334.147 164.384 333.603 165.536 332.771 166.432Z" fill="#F08A5D"/>
<path d="M477.914 113.824V178.816H495.194V113.824H506.81V101.056H466.202V113.824H477.914Z" fill="#6A2C70"/>
<path fill-rule="evenodd" clip-rule="evenodd" d="M513.944 101.056V178.816H533.336C536.728 178.816 539.896 178.528 542.84 177.952C545.848 177.376 548.472 176.288 550.712 174.688C552.952 173.088 554.68 170.816 555.896 167.872C557.176 164.928 557.816 161.088 557.816 156.352C557.816 151.168 556.92 146.944 555.128 143.68C553.336 140.352 550.744 137.888 547.352 136.288C543.96 134.688 539.832 133.888 534.968 133.888H531.128V101.056H513.944ZM533.432 167.584H531.128V145.792H533.24C536.76 145.792 539.064 146.784 540.152 148.768C541.304 150.688 541.912 153.088 541.976 155.968C542.04 158.592 541.784 160.768 541.208 162.496C540.696 164.224 539.8 165.504 538.52 166.336C537.304 167.168 535.608 167.584 533.432 167.584Z" fill="#6A2C70"/>
<path d="M142.601 201.056V278.816H159.785V244.832H171.785V278.816H189.065V201.056H171.785V232.544H159.785V201.056H142.601Z" fill="#6A2C70"/>
<path d="M201.194 201.056V278.816H211.658L231.914 233.504V278.816H245.738V201.056H234.602L214.73 245.6V201.056H201.194Z" fill="#6A2C70"/>
<path d="M392.725 201.056V278.816H403.19L423.445 233.504V278.816H437.27V201.056H426.134L406.262 245.6V223.328V201.056H392.725Z" fill="#F08A5D"/>
<path d="M461.927 190.976C464.678 193.536 468.327 194.816 472.871 194.816C477.415 194.816 481.062 193.536 483.815 190.976C486.566 188.416 487.943 184.704 487.943 179.84H479.111C479.111 182.144 478.63 183.904 477.671 185.12C476.711 186.272 475.111 186.848 472.871 186.848C470.566 186.848 468.935 186.272 467.975 185.12C467.078 183.968 466.63 182.208 466.63 179.84H457.798C457.798 184.704 459.174 188.416 461.927 190.976Z" fill="#6A2C70"/>
<path d="M58.9755 301.056V378.816H76.1595V344.832H88.1595V378.816H105.44V301.056H88.1595V332.544H76.1595V301.056H58.9755Z" fill="#B83B5E"/>
<path d="M230.257 301.056V378.816H247.441V313.824H266.257V301.056H230.257Z" fill="#6A2C70"/>
<path fill-rule="evenodd" clip-rule="evenodd" d="M282.854 376.896C286.246 378.944 290.854 379.968 296.678 379.968C302.566 379.968 307.206 378.944 310.598 376.896C314.054 374.848 316.518 371.904 317.99 368.064C319.462 364.224 320.198 359.648 320.198 354.336V325.44C320.198 320.064 319.462 315.488 317.99 311.712C316.518 307.936 314.054 305.056 310.598 303.072C307.206 301.024 302.566 300 296.678 300C290.854 300 286.246 301.024 282.854 303.072C279.462 305.056 277.03 307.936 275.558 311.712C274.086 315.488 273.35 320.064 273.35 325.44V354.336C273.35 359.648 274.086 364.224 275.558 368.064C277.03 371.904 279.462 374.848 282.854 376.896ZM300.614 366.432C299.782 367.328 298.47 367.776 296.678 367.776C294.886 367.776 293.574 367.328 292.742 366.432C291.974 365.536 291.462 364.384 291.206 362.976C291.014 361.568 290.918 360.128 290.918 358.656V321.216C290.918 319.68 291.046 318.24 291.302 316.896C291.558 315.488 292.102 314.336 292.934 313.44C293.766 312.544 295.014 312.096 296.678 312.096C298.47 312.096 299.782 312.544 300.614 313.44C301.446 314.336 301.99 315.488 302.246 316.896C302.502 318.24 302.63 319.68 302.63 321.216V358.656C302.63 360.128 302.502 361.568 302.246 362.976C301.99 364.384 301.446 365.536 300.614 366.432Z" fill="#6A2C70"/>
<path fill-rule="evenodd" clip-rule="evenodd" d="M330.656 301.056V378.816H347.84V345.792H354.752C358.976 345.792 362.784 345.184 366.176 343.968C369.568 342.752 372.256 340.576 374.24 337.44C376.224 334.24 377.216 329.632 377.216 323.616C377.216 318.816 376.48 314.752 375.008 311.424C373.536 308.032 371.296 305.472 368.288 303.744C365.28 301.952 361.44 301.056 356.768 301.056H330.656ZM353.6 333.792H347.84V313.152H353.504C355.808 313.152 357.504 313.6 358.592 314.496C359.68 315.392 360.352 316.608 360.608 318.144C360.928 319.616 361.088 321.344 361.088 323.328C361.088 325.696 360.896 327.648 360.512 329.184C360.192 330.72 359.488 331.872 358.4 332.64C357.312 333.408 355.712 333.792 353.6 333.792Z" fill="#6A2C70"/>
</svg>
